<svg width="22" height="22" fill="none" xmlns="http://www.w3.org/2000/svg"><path d="M9.793 11.604c0 .884-.633 1.602-1.43 1.602-.782 0-1.428-.718-1.428-1.602 0-.883.633-1.602 1.429-1.602.802 0 1.441.726 1.429 1.602zm5.282 0c0 .884-.627 1.602-1.429 1.602-.783 0-1.429-.718-1.429-1.602 0-.883.633-1.602 1.429-1.602.802 0 1.441.726 1.429 1.602z" fill="#fff"/><path d="M11 0C4.925 0 0 4.925 0 11s4.925 11 11 11 11-4.925 11-11S17.075 0 11 0zm7.86 15.05a13.133 13.133 0 01-3.976 2.006.05.05 0 01-.056-.018c-.3-.418-.573-.858-.812-1.32a.05.05 0 01.027-.071c.433-.164.845-.36 1.241-.59a.051.051 0 00.004-.085 6.067 6.067 0 01-.246-.194.049.049 0 00-.052-.007c-2.572 1.188-5.388 1.188-7.99 0a.05.05 0 00-.051.008c-.08.065-.163.13-.246.193a.051.051 0 00.004.084c.397.227.808.427 1.24.591a.05.05 0 01.028.07 9.406 9.406 0 01-.812 1.321.051.051 0 01-.056.018 13.18 13.18 0 01-3.97-2.006.056.056 0 01-.02-.038c-.277-2.966.288-5.969 2.349-9.048a.044.044 0 01.021-.018c1.014-.466 2.1-.808 3.236-1.004a.052.052 0 01.052.025c.14.249.3.567.41.827a12.122 12.122 0 013.633 0 9.39 9.39 0 01.403-.827.049.049 0 01.052-.025 13.14 13.14 0 013.236 1.004c.009.003.016.01.02.019 1.796 2.64 2.683 5.619 2.351 9.048a.05.05 0 01-.02.037z" fill="#fff"/></svg>