<svg width="44" height="44" fill="none" xmlns="http://www.w3.org/2000/svg"><path d="M25.354 21.753a3.79 3.79 0 11-7.58 0 3.79 3.79 0 017.58 0z" fill="#fff"/><path d="M27.965 10.298H15.162a5.06 5.06 0 00-5.054 5.054v12.803a5.06 5.06 0 005.054 5.054h12.803a5.06 5.06 0 005.055-5.054V15.352a5.06 5.06 0 00-5.055-5.054zM21.564 28.07a6.325 6.325 0 01-6.318-6.318 6.325 6.325 0 016.318-6.317 6.325 6.325 0 016.317 6.317 6.325 6.325 0 01-6.317 6.318zm7.244-12.298a1.263 1.263 0 110-2.527 1.263 1.263 0 010 2.527z" fill="#fff"/><path d="M31.756.19H11.371C5.101.19 0 5.29 0 11.56v20.385c0 6.27 5.101 11.371 11.371 11.371h20.385c6.27 0 11.372-5.101 11.372-11.371V11.56c0-6.269-5.102-11.37-11.372-11.37zm3.79 27.965c0 4.18-3.4 7.581-7.58 7.581H15.161c-4.18 0-7.581-3.4-7.581-7.58V15.351c0-4.18 3.4-7.581 7.581-7.581h12.803c4.18 0 7.582 3.4 7.582 7.58v12.804z" fill="#fff"/></svg>