<svg width="43" height="43" fill="none" xmlns="http://www.w3.org/2000/svg"><path d="M40.635 2.365C39.058.79 37.159 0 34.938 0H8.063c-2.221 0-4.12.789-5.698 2.365C.79 3.942 0 5.842 0 8.062v26.875c0 2.22.789 4.12 2.365 5.697C3.942 42.212 5.842 43 8.063 43h26.875c2.22 0 4.12-.788 5.696-2.366C42.211 39.057 43 37.158 43 34.937V8.062c0-2.22-.789-4.12-2.365-5.697zm-7.74 14.18c.018.168.027.42.027.756 0 1.568-.228 3.14-.685 4.717a16.876 16.876 0 01-2.1 4.535 17.645 17.645 0 01-3.373 3.835c-1.307 1.11-2.874 1.997-4.703 2.66-1.829.662-3.79.994-5.88.994-3.246 0-6.251-.878-9.013-2.631.447.055.914.083 1.4.083 2.706 0 5.141-.84 7.306-2.52a5.578 5.578 0 01-3.401-1.175 5.975 5.975 0 01-2.086-2.912c.485.075.85.112 1.092.112.41 0 .886-.075 1.427-.224-1.362-.261-2.51-.937-3.443-2.029-.933-1.092-1.4-2.338-1.4-3.737v-.056c.99.466 1.922.709 2.8.728-1.699-1.14-2.548-2.772-2.548-4.9 0-1.045.27-2.034.812-2.967a16.665 16.665 0 005.375 4.34 16.645 16.645 0 006.774 1.819c-.093-.355-.14-.803-.14-1.344 0-1.624.575-3.01 1.722-4.157 1.148-1.148 2.534-1.722 4.157-1.722 1.718 0 3.146.616 4.284 1.848 1.288-.243 2.539-.719 3.752-1.428-.467 1.437-1.335 2.529-2.604 3.275a12.462 12.462 0 003.387-.952 11.434 11.434 0 01-2.94 3.052z" fill="#fff"/></svg>