<svg version="1.0" xmlns="http://www.w3.org/2000/svg" width="389.333" height="389.333" viewBox="0 0 292 292"><path d="M260.1 84c-5.7 2.8-10.5 5-10.6 5-.2 0-6.4 2.9-13.8 6.4-13.9 6.6-17.7 8.1-17.7 7.2 0-1.3 5.1-14.1 6.2-15.3 2-2.5.3-2.1-8.7 2.3-10.1 4.8-11 5-10.1 2.8.8-2-.9-1.5-10.6 3.6-4.2 2.2-7.9 4.8-8.3 5.8-.3.9-3.1 2.8-6.3 4.1-8.6 3.7-10.2 5.1-18.8 16.8-4.3 5.9-8.8 11.9-9.9 13.2-2.8 3.5-8.5 10.2-10.9 12.9-2 2.2-2 2.2 3.9-.4 9.5-4.2 15.7-6.5 15.2-5.7-.3.5-1.5 3-2.7 5.8-1.2 2.7-3.5 7.8-5.1 11.2l-2.8 6.3h-18.8v46h11.5l-.2-6.9c-.1-3.9.1-6.8.6-6.5.4.3 2.8 3.4 5.4 6.9l4.6 6.5h7.1c4 0 6.7-.4 6.2-.8-1.5-1-11.8-14.2-11.4-14.5.2-.1 1.7-.9 3.4-1.7 4.3-2.2 7.6-8.5 7.1-13.5-.2-2.2-.7-4.9-1.1-6-1.1-2.8-5.6-7.5-7.2-7.5-3.1 0-.8-1.9 6-5 10.9-4.9 19-9.1 21-10.8 1-.9 1.7-1 1.7-.4s-1.9 2.2-4.2 3.6l-4.3 2.6 30.4.2c27.7.3 30.5.5 31.5 2 .8 1.3.8 2.3 0 3.5-1 1.6-4.1 1.8-34.5 2.3l-33.4.5v22.3c0 12.3.3 22.6.8 22.9 1.8 1.1 68.7.4 74.4-.7 17.3-3.5 32.4-18 37.7-35.9 2.2-7.7 1.6-22.8-1.3-30.3-4.6-11.9-13.8-22.1-24.6-27.3-10.8-5.3-11.4-5.3-15.6.3-3.4 4.4-3.6 5-2.4 7.3 1.7 3.2.6 5-3.1 5.3-1.6.1-8.5 2.9-15.4 6.3-29.6 14.3-35 16.7-35 15.3 0-.5.4-1 1-1 .5 0 4.5-1.6 8.7-3.7 4.3-2 13.9-6.4 21.3-9.9 11.4-5.3 14-6.9 16.8-10.6 1.8-2.4 3.9-5 4.5-5.8.7-.8 1.9-2.6 2.8-4.1.9-1.4 5.9-7.9 11-14.5 11.6-14.8 11-14.1 13.4-16.7 3.3-3.5 5.8-6.7 5.4-6.7-.2.1-5.1 2.3-10.8 5zm-107.9 95c1.8 2.2 1.4 5.5-1 8.2-1.5 1.8-9.1 2.6-9.3 1-.2-1.2-.2-8.6 0-10.3.2-2.4 8-1.6 10.3 1.1zM13 112l-5.5.5V158H18c12.4 0 16.9-1.1 21.4-5.1 4.7-4.1 6.9-9.3 7.2-16.9.4-9.7-3.8-17.9-11-21.7-3.5-1.8-15.1-3-22.6-2.3zm18.7 13.2c4.2 3.9 5.1 12.5 1.8 17.5-2 3-6.2 4.9-10.5 4.9l-3.5-.1-.3-12.7-.3-12.6 5.3.4c3.5.3 5.9 1.1 7.5 2.6zm19.2-12c-.1 1.9-.1 38.9 0 42l.1 2.8h30v-5c0-5.6 1-5.2-11.2-5l-7.8.1V140h15.6v-10H62v-8h19v-10H66c-11.3 0-15 .3-15.1 1.2zM86.1 135v23.1l5.6-.3 5.7-.3 7.7-11.4c4.3-6.2 8-11.5 8.1-11.6.2-.2.3 5 .2 11.6l-.1 11.9h5.3c4.8 0 5.5-.3 7.7-3.3 4.8-6.5 28.7-41.7 28.7-42.2 0-.3-2.9-.5-6.4-.5h-6.4l-6.3 9.2c-3.5 5.1-7.5 11-9 13l-2.7 3.8.1-12.8.2-12.7-4.6-.3-4.5-.3-8.4 12.5c-4.7 6.8-8.7 12.1-9 11.6-.3-.4-.4-6-.4-12.4l.1-11.6H86l.1 23z"/><path d="M235.7 126.5c-.8 1.9 1.2 3 2.6 1.5.9-1 .9-1.1-.2-.5-1.1.6-1.3.4-.8-.8.3-1 .2-1.7-.2-1.7-.5 0-1.1.7-1.4 1.5zM54.8 166.2c-4.6 1.2-11.3 6.9-13.8 11.8-4.6 9-2.9 20.7 4 27.7 11.5 11.8 31.8 8.6 38.6-6.1 9-19.3-7.9-39-28.8-33.4zM68 177.5c7.8 4.1 8.2 18.1.6 23-5.6 3.7-14 1.2-17-5.1-2-4.3-2-7.3-.1-12.2 2.7-6.5 10-9.1 16.5-5.7zm-60.8-6.3l.3 5.3 4.3-.1H16V194c0 9.7.2 17.9.4 18.1.2.2 2.9.2 6 .1l5.6-.4v-35.5l4.3.1 4.2.1.3-5.3.3-5.2H6.9l.3 5.2zm82.7-2.5c-.4 12 .2 31.4 1.1 33.8 4.2 11.1 20.3 14.3 29.2 5.8 4.1-3.9 4.8-7.5 5-25.4l.2-16.4-6-.3-5.9-.3-.1 16.7c-.1 16.1-.2 16.8-2.4 18.6-2.8 2.3-4.2 2.3-7.1 0-2.2-1.8-2.2-2.5-2.3-18.5l-.1-16.7h-5.7c-5.6 0-5.8.1-5.9 2.7z"/></svg>