<svg width="826" height="826" fill="none" xmlns="http://www.w3.org/2000/svg"><mask id="a" fill="#fff"><path fill-rule="evenodd" clip-rule="evenodd" d="M413 825c227.541 0 412-184.458 412-412C825 185.459 640.541 1 413 1 185.458 1 1 185.459 1 413c0 227.542 184.458 412 412 412zm0 1c228.093 0 413-184.906 413-413S641.093 0 413 0C184.906 0 0 184.906 0 413s184.906 413 413 413z"/></mask><path d="M824 413c0 226.989-184.011 411-411 411v2c228.093 0 413-184.906 413-413h-2zM413 2c226.989 0 411 184.011 411 411h2C826 184.906 641.093 0 413 0v2zM2 413C2 186.011 186.01 2 413 2V0C184.906 0 0 184.906 0 413h2zm411 411C186.011 824 2 639.989 2 413H0c0 228.094 184.906 413 413 413v-2zm412-411c0 227.542-184.459 412-412 412v2c228.646 0 414-185.354 414-414h-2zM413 1c227.541 0 412 184.459 412 412h2C827 184.354 641.646-1 413-1v2zM1 413C1 185.459 185.458 1 413 1v-2C184.354-1-1 184.354-1 413h2zm412 412C185.458 825 1 640.542 1 413h-2c0 228.646 185.354 414 414 414v-2z" fill="#fff" fill-opacity=".08" mask="url(#a)"/></svg>