<svg width="1862" height="37" fill="none" xmlns="http://www.w3.org/2000/svg"><path d="M728 0h52.529L822 37h-52.529L728 0zM312 0h52.529L406 37h-52.529L312 0zm832 0h52.53L1238 37h-52.53L1144 0zm416 0h52.53L1654 37h-52.53L1560 0zM520 0h52.529L614 37h-52.529L520 0zM104 0h52.529L198 37h-52.529L104 0zm832 0h52.529L1030 37h-52.529L936 0zm416 0h52.53L1446 37h-52.53L1352 0zM624 0h52.529L718 37h-52.529L624 0zM208 0h52.529L302 37h-52.529L208 0zm832 0h52.53L1134 37h-52.53L1040 0zm416 0h52.53L1550 37h-52.53L1456 0zm208 0h52.53L1758 37h-52.53L1664 0zm104 0h52.53L1862 37h-52.53L1768 0zM416 0h52.529L510 37h-52.529L416 0zM0 0h52.53L94 37H41.47L0 0zm832 0h52.529L926 37h-52.529L832 0zm416 0h52.53L1342 37h-52.53L1248 0z" fill="#92E45A"/></svg>