<?xml version="1.0" encoding="utf-8"?><svg viewBox="0 0 44 44" xmlns="http://www.w3.org/2000/svg" xmlns:xlink="http://www.w3.org/1999/xlink"><style>:root>svg{display:none}:root>svg:target{display:block}</style><svg viewBox="0 0 35 28" id="burger" xmlns="http://www.w3.org/2000/svg"><path d="M10.889 0h23.333v3.111H10.889V0zM0 12.444h34.222v3.111H0v-3.11zM0 24.889h34.222v3.11H0v-3.11z"/></svg><svg viewBox="0 0 14 21" id="chevron_next" xmlns="http://www.w3.org/2000/svg"><path d="M.161 3.114l7.37 7.37-7.37 7.37 2.792 2.791 10.161-10.161L2.953.323.16 3.114z"/></svg><svg viewBox="0 0 9 16" id="chevron_next_thin" xmlns="http://www.w3.org/2000/svg"><path fill-rule="evenodd" clip-rule="evenodd" d="M2.207 15.071l6.364-6.364a1 1 0 000-1.414L2.207.929A1 1 0 00.793 2.343L5.45 7h-.086v2h.086L.793 13.657a1 1 0 101.414 1.414z"/></svg><svg viewBox="0 0 14 21" id="chevron_prev" xmlns="http://www.w3.org/2000/svg"><path d="M13.839 3.114l-7.37 7.37 7.37 7.37-2.792 2.791L.886 10.484 11.047.323l2.792 2.791z"/></svg><svg viewBox="0 0 9 16" id="chevron_prev_thin" xmlns="http://www.w3.org/2000/svg"><path fill-rule="evenodd" clip-rule="evenodd" d="M7.157.929L.793 7.293a1 1 0 000 1.414l6.364 6.364a1 1 0 001.414-1.414L3.914 9H4V7h-.086l4.657-4.657A1 1 0 007.157.93z"/></svg><svg viewBox="0 0 29 28" id="close" xmlns="http://www.w3.org/2000/svg"><path d="M8.09 6.59L7 7.681 20.909 21.59l1.09-1.09L8.092 6.59z"/><path d="M7 20.499l1.09 1.09L22 7.682 20.91 6.59 7 20.499z"/></svg><svg viewBox="0 0 22 22" id="discord" xmlns="http://www.w3.org/2000/svg"><path d="M9.793 11.604c0 .884-.633 1.602-1.43 1.602-.782 0-1.428-.718-1.428-1.602 0-.883.633-1.602 1.429-1.602.802 0 1.441.726 1.429 1.602zM15.075 11.604c0 .884-.627 1.602-1.429 1.602-.783 0-1.429-.718-1.429-1.602 0-.883.633-1.602 1.429-1.602.802 0 1.441.726 1.429 1.602z"/><path d="M11 0C4.925 0 0 4.925 0 11s4.925 11 11 11 11-4.925 11-11S17.075 0 11 0zm7.86 15.05a13.133 13.133 0 01-3.976 2.006.05.05 0 01-.056-.018c-.3-.418-.573-.858-.812-1.32a.05.05 0 01.027-.071c.433-.164.845-.36 1.241-.59a.051.051 0 00.004-.085 6.067 6.067 0 01-.246-.194.049.049 0 00-.052-.007c-2.572 1.188-5.388 1.188-7.99 0a.05.05 0 00-.051.008c-.08.065-.163.13-.246.193a.051.051 0 00.004.084c.397.227.808.427 1.24.591a.05.05 0 01.028.07 9.406 9.406 0 01-.812 1.321.051.051 0 01-.056.018 13.18 13.18 0 01-3.97-2.006.056.056 0 01-.02-.038c-.277-2.966.288-5.969 2.349-9.048a.044.044 0 01.021-.018c1.014-.466 2.1-.808 3.236-1.004a.052.052 0 01.052.025c.14.249.3.567.41.827a12.122 12.122 0 013.633 0c.109-.254.263-.578.403-.827a.049.049 0 01.052-.025c1.136.196 2.223.54 3.236 1.004.009.003.016.01.02.019 1.796 2.64 2.683 5.619 2.351 9.048a.05.05 0 01-.02.037z"/></svg><svg viewBox="0 0 42 43" id="facebook" xmlns="http://www.w3.org/2000/svg"><path d="M35.848 0H6.152C2.76 0 0 2.826 0 6.299V36.7C0 40.174 2.76 43 6.152 43H18.54V27.799h-4.922V20.24h4.922v-5.123c0-4.168 3.312-7.558 7.383-7.558h7.465v7.558h-7.465v5.123h7.465l-1.23 7.559h-6.235V43h9.926C39.24 43 42 40.174 42 36.701V6.3C42 2.826 39.24 0 35.848 0z"/></svg><svg viewBox="0 0 44 44" id="instagram" xmlns="http://www.w3.org/2000/svg"><path d="M25.354 21.753a3.79 3.79 0 11-7.58 0 3.79 3.79 0 017.58 0z"/><path d="M27.965 10.298H15.162a5.06 5.06 0 00-5.054 5.054v12.803a5.06 5.06 0 005.054 5.054h12.803a5.06 5.06 0 005.055-5.054V15.352a5.06 5.06 0 00-5.055-5.054zM21.564 28.07a6.325 6.325 0 01-6.318-6.318 6.325 6.325 0 016.318-6.317 6.325 6.325 0 016.317 6.317 6.325 6.325 0 01-6.317 6.318zm7.244-12.298a1.263 1.263 0 110-2.527 1.263 1.263 0 010 2.527z"/><path d="M31.756.19H11.371C5.101.19 0 5.29 0 11.56v20.385c0 6.27 5.101 11.371 11.371 11.371h20.385c6.27 0 11.372-5.101 11.372-11.371V11.56C43.128 5.291 38.026.19 31.756.19zm3.79 27.965c0 4.18-3.4 7.581-7.58 7.581H15.161c-4.18 0-7.581-3.4-7.581-7.58V15.351c0-4.18 3.4-7.581 7.581-7.581h12.803c4.18 0 7.582 3.4 7.582 7.58v12.804z"/></svg><svg viewBox="0 0 43 43" id="twitter" xmlns="http://www.w3.org/2000/svg"><path d="M40.635 2.365C39.058.79 37.159 0 34.938 0H8.063c-2.221 0-4.12.789-5.698 2.365C.79 3.942 0 5.842 0 8.062v26.875c0 2.22.789 4.12 2.365 5.697C3.942 42.212 5.842 43 8.063 43h26.875c2.22 0 4.12-.788 5.696-2.366C42.211 39.057 43 37.158 43 34.937V8.062c0-2.22-.789-4.12-2.365-5.697zm-7.74 14.18c.018.168.027.42.027.756 0 1.568-.228 3.14-.685 4.717a16.876 16.876 0 01-2.1 4.535 17.645 17.645 0 01-3.373 3.835c-1.307 1.11-2.874 1.997-4.703 2.66-1.829.662-3.79.994-5.88.994-3.246 0-6.251-.878-9.013-2.631.447.055.914.083 1.4.083 2.706 0 5.141-.84 7.306-2.52a5.578 5.578 0 01-3.401-1.175 5.975 5.975 0 01-2.086-2.912c.485.075.85.112 1.092.112.41 0 .886-.075 1.427-.224-1.362-.261-2.51-.937-3.443-2.029-.933-1.092-1.4-2.338-1.4-3.737v-.056c.99.466 1.922.709 2.8.728-1.699-1.14-2.548-2.772-2.548-4.9 0-1.045.27-2.034.812-2.967a16.665 16.665 0 005.375 4.34 16.645 16.645 0 006.774 1.819c-.093-.355-.14-.803-.14-1.344 0-1.624.575-3.01 1.722-4.157 1.148-1.148 2.534-1.722 4.157-1.722 1.718 0 3.146.616 4.284 1.848 1.288-.243 2.539-.719 3.752-1.428-.467 1.437-1.335 2.529-2.604 3.275a12.462 12.462 0 003.387-.952 11.434 11.434 0 01-2.94 3.052z"/></svg></svg>